<?xml version="1.0" encoding="UTF-8"?>
<svg id="Calque_1" data-name="Calque 1" xmlns="http://www.w3.org/2000/svg" viewBox="0 0 1920 379.89">
  <g>
    <path d="M356.53,166.7v168.5c-17.94,8.19-37.99,14.48-60.18,18.88-22.18,4.4-44.92,6.61-68.2,6.61-36.5,0-68.2-6.92-95.1-20.77-26.9-13.84-47.6-33.75-62.07-59.71-14.48-25.96-21.71-56.71-21.71-92.27s7.24-64.9,21.71-90.86c14.47-25.96,34.93-45.94,61.36-59.94,26.43-14,57.27-21,92.51-21,24.23,0,47.12,3.15,68.67,9.44,21.55,6.3,39.09,14.95,52.63,25.96l-27.85,62.77c-15.42-10.07-30.29-17.38-44.6-21.95-14.32-4.56-29.66-6.84-46.02-6.84-29.9,0-52.15,8.42-66.79,25.25-14.63,16.84-21.95,42.56-21.95,77.17s7.63,62.46,22.89,79.76c15.26,17.31,38.78,25.96,70.56,25.96,14.79,0,29.57-1.57,44.37-4.72v-62.3h-58.53v-59.94h138.29Z"/>
    <path d="M691.46,356.44h-93.93l-43.42-111.86c-5.04-12.58-16.84-18.88-35.4-18.88h-32.1v130.74h-87.32V20.38h156.23c40.59,0,71.11,8.73,91.56,26.2,20.45,17.46,30.68,42.4,30.68,74.81,0,22.66-6.06,42.24-18.17,58.76-12.12,16.52-29.19,28.24-51.21,35.16,9.44,1.89,17.94,6.3,25.49,13.22,7.55,6.92,13.53,16.21,17.94,27.85l39.65,100.06ZM582.43,150.89c8.5-5.82,12.74-14.87,12.74-27.14,0-12.9-4.17-22.18-12.51-27.85-8.34-5.66-22.11-8.5-41.3-8.5h-55.69v72.21h55.69c18.88,0,32.57-2.91,41.06-8.73Z"/>
    <path d="M1137.31,339.68c-25.49-14-45.07-34.06-58.76-60.18-13.69-26.11-20.53-56.64-20.53-91.56s6.92-65.29,20.77-91.09c13.84-25.8,33.43-45.7,58.76-59.71,25.32-14,55.14-21,89.44-21s64.11,7.01,89.44,21c25.32,14,44.76,33.91,58.29,59.71,13.53,25.8,20.3,56.17,20.3,91.09s-6.77,65.45-20.3,91.56c-13.53,26.12-32.97,46.18-58.29,60.18-25.33,14-55.15,21-89.44,21s-64.19-7-89.68-21ZM1286.22,266.29c14.32-17.94,21.48-44.05,21.48-78.35s-7.16-59.86-21.48-77.64c-14.32-17.77-34.06-26.67-59.23-26.67s-44.84,8.81-59,26.43c-14.16,17.63-21.24,43.59-21.24,77.88s7.08,60.81,21.24,78.59c14.16,17.78,33.82,26.67,59,26.67s44.91-8.97,59.23-26.9Z"/>
    <path d="M1673.92,20.38h89.21l-152.92,336.05h-70.33L1386.96,20.38h92.04l96.76,225.61,98.17-225.61Z"/>
  </g>
  <path d="M859.96,16.14c-93.06,0-168.5,77.12-168.5,172.27s75.44,172.27,168.5,172.27,168.5-77.13,168.5-172.27S953.02,16.14,859.96,16.14ZM859.96,320.01c-60.52,0-113.69-41.67-129.29-101.34l7.74-2.02c14.68,56.15,64.66,95.36,121.55,95.36v8ZM859.96,278.99c-20.39,0-39.77-6.57-56.06-19.01-15.72-12.01-27.59-29.11-33.41-48.16l7.66-2.34c5.33,17.47,16.2,33.14,30.61,44.14,14.87,11.37,32.58,17.37,51.2,17.37v8ZM859.96,243.1c-29.54,0-53.49-24.49-53.49-54.69s23.95-54.7,53.49-54.7,53.5,24.49,53.5,54.7-23.95,54.69-53.5,54.69ZM941.77,162.21c-5.33-17.46-16.2-33.14-30.61-44.14-14.87-11.36-32.58-17.37-51.2-17.37v-8c20.39,0,39.78,6.57,56.06,19.01,15.72,12.01,27.59,29.11,33.41,48.16l-7.66,2.34ZM859.96,59.68v-8c60.52,0,113.69,41.67,129.29,101.34l-7.74,2.02c-14.68-56.15-64.66-95.36-121.55-95.36Z"/>
  <path d="M1789.97,20.38h76.58v60.79s3.9,50.87-66.83,73.29l-17.32-31.47s38.78-13.36,39.76-40.52l-32.19-.43V20.38Z"/>
  <circle cx="859.96" cy="188.41" r="11.24"/>
</svg>